# xmcd
#
# Track frame offsets: 
#        150
#        13117
#        26330
#        37045
#        51010
#        60405
#        70232
#        90882
#        103712
#        113655
#        122482
#        135432
#        144325
#        157635
#
# Disc length: 2409 seconds
#
# Revision: 0
# Processed by: cddbd v1.4PL0 Copyright (c) Steve Scherf et al.
# Submitted via: ExactAudioCopy v0.90a11
#
DISCID=a209670e
DTITLE=Freddy Fender - The hits and more cd 2
DYEAR=1900
DGENRE=
TTITLE0=You'll Lose A Good Thing
TTITLE1=The Girl Who Waits On Tables
TTITLE2=A Man Can Cry
TTITLE3=Baby I Want To Love You
TTITLE4=Running Back
TTITLE5=But I Do
TTITLE6=Six Days On The Road
TTITLE7=No Me Quieres Ver
TTITLE8=Tu Frio Corazon
TTITLE9=Jambalaya (On The Bayou)
TTITLE10=I can't Stop Loving You
TTITLE11=Lovin' Cajun Style
TTITLE12=Mexican Rose
TTITLE13=For The Good Times
EXTD=
EXTT0=
EXTT1=
EXTT2=
EXTT3=
EXTT4=
EXTT5=
EXTT6=
EXTT7=
EXTT8=
EXTT9=
EXTT10=
EXTT11=
EXTT12=
EXTT13=
PLAYORDER=
